<svg width="480" height="480" viewBox="0 0 480 480" fill="none" xmlns="http://www.w3.org/2000/svg">
<path fill-rule="evenodd" clip-rule="evenodd" d="M472 0H240V119C306.274 119 360 172.726 360 239C360 239.334 359.999 239.667 359.996 240H480V8C480 3.58172 476.418 0 472 0Z" fill="#D44530"/>
<path fill-rule="evenodd" clip-rule="evenodd" d="M240 480C372.548 480 480 372.548 480 240C480 107.452 372.548 0 240 0C107.452 0 0 107.452 0 240C0 372.548 107.452 480 240 480ZM240 359C306.274 359 360 305.274 360 239C360 172.726 306.274 119 240 119C173.726 119 120 172.726 120 239C120 305.274 173.726 359 240 359Z" fill="#E5A23F"/>
<path fill-rule="evenodd" clip-rule="evenodd" d="M240.004 359C240.003 359 240.001 359 240 359C206.873 359 176.881 345.577 155.167 323.873C142.653 336.296 130.327 348.562 119.446 359.442C77.5464 401.342 15.0898 464.69 2.33008 477.639C3.7793 479.097 5.78613 480 8.00439 480H240.004V359Z" fill="#4AB76E"/>
<path fill-rule="evenodd" clip-rule="evenodd" d="M120.004 240H0V472C0 474.218 0.902832 476.225 2.36084 477.674C15.3096 464.914 78.6582 402.458 120.558 360.558C131.44 349.676 143.71 337.346 156.135 324.829C134.061 303.257 120.275 273.239 120.004 240Z" fill="#3680D1"/>
</svg>
